<svg xmlns="http://www.w3.org/2000/svg" xmlns:xlink="http://www.w3.org/1999/xlink" version="1.1" x="0px" y="0px" viewBox="0 0 100 125" style="enable-background:new 0 0 100 100;" xml:space="preserve"><g><path d="M90.1372986,74.1834869c-1.3812943,0-2.5007935,1.1194992-2.5007935,2.5008011v13.313324   c0,1.3788528-1.1219406,2.5007935-2.5007935,2.5007935H14.8642912c-1.3788567,0-2.5007963-1.1219406-2.5007963-2.5007935V76.684288   c0-1.3813019-1.1194973-2.5008011-2.5007973-2.5008011s-2.5007968,1.1194992-2.5007968,2.5008011v13.313324   c0,4.1370544,3.3653302,7.502388,7.5023904,7.502388h70.2714233c4.1370544,0,7.502388-3.3653336,7.502388-7.502388V76.684288   C92.6380997,75.3029861,91.5186005,74.1834869,90.1372986,74.1834869z"/><path d="M48.2318573,74.3900986C48.7198067,74.8785324,49.3601494,75.1227493,50,75.1227493   s1.2801933-0.2442169,1.7681427-0.7326508l25.325943-25.325943c0.9768677-0.976387,0.9768677-2.5598984,0-3.5362854   c-0.9758987-0.9768715-2.5603867-0.9768715-3.5362854,0L52.4705124,66.6147308V4.9705138   C52.4705124,3.6063097,51.3642044,2.5,50,2.5s-2.4705124,1.1063097-2.4705124,2.4705138v61.6442184L26.4421997,45.5278702   c-0.9758968-0.9768715-2.5603867-0.9768715-3.5362835,0c-0.9768734,0.976387-0.9768734,2.5598984,0,3.5362854   L48.2318573,74.3900986z"/></g><text x="0" y="115" fill="#000000" font-size="5px" font-weight="bold" font-family="'Helvetica Neue', Helvetica, Arial-Unicode, Arial, Sans-serif">Created by Janice Cole</text><text x="0" y="120" fill="#000000" font-size="5px" font-weight="bold" font-family="'Helvetica Neue', Helvetica, Arial-Unicode, Arial, Sans-serif">from the Noun Project</text></svg>