<svg xmlns="http://www.w3.org/2000/svg" xmlns:xlink="http://www.w3.org/1999/xlink" version="1.1" x="0px" y="0px" viewBox="0 0 100 125" enable-background="new 0 0 100 100" xml:space="preserve"><g><path d="M74.68,33.42h-8.12v-9.91c0-0.83-0.67-1.5-1.5-1.5H34.89c-0.83,0-1.5,0.67-1.5,1.5v9.91h-8.12c-1.81,0-3.29,1.47-3.29,3.29   v26.6c0,1.81,1.47,3.29,3.29,3.29h8.12v10.04c0,0.83,0.67,1.5,1.5,1.5h30.17c0.83,0,1.5-0.67,1.5-1.5V66.59h8.12   c1.81,0,3.29-1.47,3.29-3.29v-26.6C77.97,34.9,76.49,33.42,74.68,33.42z M36.39,25.01h27.17v8.41H36.39V25.01z M63.56,75.13H36.39   V55.47h27.17V75.13z M74.97,63.31c0,0.16-0.13,0.29-0.29,0.29h-8.12v-8.12h3.64c0.83,0,1.5-0.67,1.5-1.5s-0.67-1.5-1.5-1.5H29.75   c-0.83,0-1.5,0.67-1.5,1.5s0.67,1.5,1.5,1.5h3.64v8.12h-8.12c-0.16,0-0.29-0.13-0.29-0.29v-26.6c0-0.16,0.13-0.29,0.29-0.29h49.42   c0.16,0,0.29,0.13,0.29,0.29V63.31z"/><path d="M70.35,42.69h-8.93c-0.83,0-1.5,0.67-1.5,1.5s0.67,1.5,1.5,1.5h8.93c0.83,0,1.5-0.67,1.5-1.5S71.18,42.69,70.35,42.69z"/><path d="M41.5,63.59h8.93c0.83,0,1.5-0.67,1.5-1.5s-0.67-1.5-1.5-1.5H41.5c-0.83,0-1.5,0.67-1.5,1.5S40.67,63.59,41.5,63.59z"/><path d="M58.44,67.14H41.5c-0.83,0-1.5,0.67-1.5,1.5s0.67,1.5,1.5,1.5h16.94c0.83,0,1.5-0.67,1.5-1.5S59.27,67.14,58.44,67.14z"/></g><text x="0" y="115" fill="#000000" font-size="5px" font-weight="bold" font-family="'Helvetica Neue', Helvetica, Arial-Unicode, Arial, Sans-serif">Created by Flip Song</text><text x="0" y="120" fill="#000000" font-size="5px" font-weight="bold" font-family="'Helvetica Neue', Helvetica, Arial-Unicode, Arial, Sans-serif">from the Noun Project</text></svg>