<svg xmlns="http://www.w3.org/2000/svg" xmlns:xlink="http://www.w3.org/1999/xlink" version="1.1" x="0px" y="0px" viewBox="0 0 20 25" enable-background="new 0 0 20 20" xml:space="preserve"><path fill="#000000" d="M16,12c-1.2,0-2.3,0.5-3,1.4l-5.1-2.5C8,10.6,8,10.3,8,10c0-0.3,0-0.6-0.1-0.8L13,6.6C13.7,7.5,14.8,8,16,8  c2.2,0,4-1.8,4-4c0-2.2-1.8-4-4-4c-2.2,0-4,1.8-4,4c0,0.3,0,0.6,0.1,0.8L7,7.4C6.3,6.5,5.2,6,4,6c-2.2,0-4,1.8-4,4c0,2.2,1.8,4,4,4  c1.2,0,2.3-0.5,3-1.4l5.1,2.5C12,15.4,12,15.7,12,16c0,2.2,1.8,4,4,4c2.2,0,4-1.8,4-4C20,13.8,18.2,12,16,12z M16,2c1.1,0,2,0.9,2,2  c0,1.1-0.9,2-2,2c-1.1,0-2-0.9-2-2C14,2.9,14.9,2,16,2z M4,12c-1.1,0-2-0.9-2-2c0-1.1,0.9-2,2-2c1.1,0,2,0.9,2,2C6,11.1,5.1,12,4,12  z M16,18c-1.1,0-2-0.9-2-2c0-1.1,0.9-2,2-2c1.1,0,2,0.9,2,2C18,17.1,17.1,18,16,18z"/><text x="0" y="35" fill="#000000" font-size="5px" font-weight="bold" font-family="'Helvetica Neue', Helvetica, Arial-Unicode, Arial, Sans-serif">Created by ProSymbols</text><text x="0" y="40" fill="#000000" font-size="5px" font-weight="bold" font-family="'Helvetica Neue', Helvetica, Arial-Unicode, Arial, Sans-serif">from the Noun Project</text></svg>